<?xml version="1.0" encoding="UTF-8" standalone="no" ?>
<!DOCTYPE svg PUBLIC "-//W3C//DTD SVG 1.1//EN" "http://www.w3.org/Graphics/SVG/1.1/DTD/svg11.dtd">
<svg xmlns="http://www.w3.org/2000/svg" xmlns:xlink="http://www.w3.org/1999/xlink" version="1.1" width="430.40000000000003" height="430.40000000000003" xml:space="preserve">
<desc>Created with Fabric.js 1.6.0-rc.1</desc>
<defs></defs>
<g style="stroke: none; stroke-width: 1; stroke-dasharray: none; stroke-linecap: butt; stroke-linejoin: miter; stroke-miterlimit: 10; fill: none; fill-rule: nonzero; opacity: 1;" transform="translate(10 10) scale(0.8 0.8)" >
  <circle cx="256" cy="256" r="256" style="stroke: none; stroke-width: 1; stroke-dasharray: none; stroke-linecap: butt; stroke-linejoin: miter; stroke-miterlimit: 10; fill: #96EDE5; fill-rule: nonzero; opacity: 1;" transform="  matrix(1 0 0 1 0 0) "/>
  <path d="M 333.44 500.064 c 90.636 -28.732 159.413 -106.548 175.14 -202.242 L 383.569 172.811 l -93.834 -55.515 l -24.424 -24.424 l -15.057 32.766 L 176.7 138.855 l -48.269 33.956 L 258.35 302.73 l -10.352 111.892 L 333.44 500.064 z" style="stroke: none; stroke-width: 1; stroke-dasharray: none; stroke-linecap: butt; stroke-linejoin: miter; stroke-miterlimit: 10; fill: #26D4CB; fill-rule: nonzero; opacity: 1;" transform=" matrix(1 0 0 1 0 0) " stroke-linecap="round" />
  <path d="M 256.002 417.227 L 256.002 417.227 c -7.549 0 -13.669 -6.12 -13.669 -13.669 V 102.86 c 0 -7.549 6.12 -13.669 13.669 -13.669 l 0 0 c 7.549 0 13.669 6.12 13.669 13.669 v 300.699 C 269.669 411.108 263.549 417.227 256.002 417.227 z" style="stroke: none; stroke-width: 1; stroke-dasharray: none; stroke-linecap: butt; stroke-linejoin: miter; stroke-miterlimit: 10; fill: #9D2322; fill-rule: nonzero; opacity: 1;" transform=" matrix(1 0 0 1 0 0) " stroke-linecap="round" />
  <path d="M 256.002 89.193 c -0.193 0 -0.383 0.021 -0.574 0.029 v 327.977 c 0.191 0.009 0.381 0.029 0.574 0.029 c 7.549 0 13.669 -6.12 13.669 -13.667 V 102.86 C 269.669 95.311 263.549 89.193 256.002 89.193 z" style="stroke: none; stroke-width: 1; stroke-dasharray: none; stroke-linecap: butt; stroke-linejoin: miter; stroke-miterlimit: 10; fill: #861608; fill-rule: nonzero; opacity: 1;" transform=" matrix(1 0 0 1 0 0) " stroke-linecap="round" />
  <path d="M 242.333 102.86 v 300.699 c 0 7.354 5.813 13.336 13.095 13.64 V 89.222 C 248.146 89.524 242.333 95.506 242.333 102.86 z" style="stroke: none; stroke-width: 1; stroke-dasharray: none; stroke-linecap: butt; stroke-linejoin: miter; stroke-miterlimit: 10; fill: #9D2322; fill-rule: nonzero; opacity: 1;" transform=" matrix(1 0 0 1 0 0) " stroke-linecap="round" />
  <path d="M 256.002 142.748 c 49.278 0 94.106 11.412 127.569 30.065 c -19.303 -34.592 -69.127 -59.23 -127.569 -59.23 s -108.266 24.638 -127.569 59.23 C 161.895 154.16 206.724 142.748 256.002 142.748 z" style="stroke: none; stroke-width: 1; stroke-dasharray: none; stroke-linecap: butt; stroke-linejoin: miter; stroke-miterlimit: 10; fill: #FFFCFF; fill-rule: nonzero; opacity: 1;" transform=" matrix(1 0 0 1 0 0) " stroke-linecap="round" />
  <path d="M 128.433 172.813 c 33.332 -18.58 77.945 -29.968 126.995 -30.056 V 113.59 C 197.234 113.752 147.67 138.335 128.433 172.813 z" style="stroke: none; stroke-width: 1; stroke-dasharray: none; stroke-linecap: butt; stroke-linejoin: miter; stroke-miterlimit: 10; fill: #FFFCFF; fill-rule: nonzero; opacity: 1;" transform=" matrix(1 0 0 1 0 0) " stroke-linecap="round" />
  <path d="M 383.571 172.813 c -19.303 -34.592 -69.127 -59.23 -127.569 -59.23 c -0.193 0 -0.383 0.007 -0.574 0.007 v 29.167 c 0.193 0 0.381 -0.009 0.574 -0.009 C 305.278 142.748 350.106 154.16 383.571 172.813 z" style="stroke: none; stroke-width: 1; stroke-dasharray: none; stroke-linecap: butt; stroke-linejoin: miter; stroke-miterlimit: 10; fill: #FCF2CF; fill-rule: nonzero; opacity: 1;" transform=" matrix(1 0 0 1 0 0) " stroke-linecap="round" />
</g>
</svg>